HIERARCHY
ROOT hip
{
	OFFSET 0.000000 0.000000 0.000000 
	CHANNELS 6 Xposition Yposition Zposition Xrotation Zrotation Yrotation
	JOINT abdomen
	{
		OFFSET 0.000000 3.402643 0.000000 
		CHANNELS 3 Xrotation Zrotation Yrotation
		JOINT chest
		{
			OFFSET 0.000000 8.438565 -0.680529 
			CHANNELS 3 Xrotation Zrotation Yrotation
			JOINT neck
			{
				OFFSET 0.000000 10.207942 -0.272212 
				CHANNELS 3 Xrotation Zrotation Yrotation
				JOINT head
				{
					OFFSET 0.000000 3.130431 0.000000 
					CHANNELS 3 Xrotation Zrotation Yrotation
					End Site
					{
						OFFSET 0.000000 3.130435 0.000000 
					}
				}
			}
			JOINT lCollar
			{
				OFFSET 3.470700 6.669187 -0.816635 
				CHANNELS 3 Yrotation Zrotation Xrotation
				JOINT lShldr
				{
					OFFSET 3.198488 0.000000 0.000000 
					CHANNELS 3 Zrotation Yrotation Xrotation
					JOINT lForeArm
					{
						OFFSET 10.139888 0.000000 0.000000 
						CHANNELS 3 Yrotation Zrotation Xrotation
						JOINT lHand
						{
							OFFSET 8.370511 0.000000 0.000000 
							CHANNELS 3 Zrotation Yrotation Xrotation
							End Site
							{
								OFFSET 4.083176 0.000000 0.000000 
							}
						}
					}
				}
			}
			JOINT rCollar
			{
				OFFSET -3.470700 6.669187 -0.816635 
				CHANNELS 3 Yrotation Zrotation Xrotation
				JOINT rShldr
				{
					OFFSET -3.198488 0.000000 0.000000 
					CHANNELS 3 Zrotation Yrotation Xrotation
					JOINT rForeArm
					{
						OFFSET -10.139888 0.000000 0.000000 
						CHANNELS 3 Yrotation Zrotation Xrotation
						JOINT rHand
						{
							OFFSET -8.370511 0.000000 0.000000 
							CHANNELS 3 Zrotation Yrotation Xrotation
							End Site
							{
								OFFSET -4.083176 0.000000 0.000000 
							}
						}
					}
				}
			}
		}
	}
	JOINT lThigh
	{
		OFFSET 5.308129 -1.633274 1.361059 
		CHANNELS 3 Xrotation Zrotation Yrotation
		JOINT lShin
		{
			OFFSET -2.041588 -20.007561 0.000000 
			CHANNELS 3 Xrotation Zrotation Yrotation
			JOINT lFoot
			{
				OFFSET 0.000000 -19.190928 -1.224953 
				CHANNELS 3 Xrotation Yrotation Zrotation
				End Site
				{
					OFFSET 0.000000 -2.449906 4.627600 
				}
			}
		}
	}
	JOINT rThigh
	{
		OFFSET -5.308129 -1.633274 1.361059 
		CHANNELS 3 Xrotation Zrotation Yrotation
		JOINT rShin
		{
			OFFSET 2.041588 -20.007561 0.000000 
			CHANNELS 3 Xrotation Zrotation Yrotation
			JOINT rFoot
			{
				OFFSET 0.000000 -19.190928 -1.224953 
				CHANNELS 3 Xrotation Yrotation Zrotation
				End Site
				{
					OFFSET 0.000000 -2.449906 4.627600 
				}
			}
		}
	}
}
MOTION
Frames: 11
Frame Time: 0.033333
-6.519197 56.960686 -79.724251 21.611328 10.009192 -125.153259 31.445313 8.378906 4.815876 -32.646484 6.728516 -0.301590 -1.962891 5.039063 1.513672 21.259766 2.353516 1.387110 31.796873 0.781250 -0.078125 84.609375 -39.921875 -145.953537 -65.078125 -3.740235 -51.766941 -16.347656 8.085938 -2.373047 -11.611328 -1.083984 -0.048828 -62.333981 45.302734 -130.120010 67.744141 -1.113281 10.546909 -16.630859 8.867188 -2.724609 -2.626007 23.562128 -5.038772 25.893887 -0.973170 -2.488203 20.869900 37.205265 -23.978413 -106.206337 -59.835106 76.663048 49.204338 -0.686966 3.291075 15.534109 -32.365768 19.248716 
-6.197687 56.441345 -79.881920 24.072268 10.546875 -119.363441 30.722656 8.505859 5.751954 -33.183594 7.783204 0.391947 -3.037110 6.835937 1.650391 22.490234 0.585938 1.562500 32.851559 1.015625 -0.048828 82.187500 -39.843746 -145.211334 -67.324219 -3.876953 -51.835274 -13.496094 5.117188 -1.376081 -11.953125 -1.972656 -0.058258 -63.251949 45.644531 -132.190277 68.115234 -1.132813 10.703318 -17.304688 8.486328 -2.713401 -4.734918 26.743074 -1.319854 27.118809 -0.977521 -2.694410 19.322546 35.333660 -22.696411 -93.362114 -64.912735 69.166077 48.878918 -0.363837 3.069409 17.592363 -30.168549 19.945086 
-5.793993 55.597282 -79.967590 26.367189 11.250001 -113.347702 30.000000 8.554688 6.300281 -33.876953 8.642578 0.733889 -5.351562 8.623047 1.808105 24.414063 -1.347656 1.728516 33.730469 0.761719 -0.117317 80.820313 -40.048828 -145.009766 -68.964844 -3.691406 -51.610703 -9.189452 3.574219 -0.692749 -11.787109 -2.656250 -0.204626 -65.146484 46.279301 -134.573013 67.685547 -1.083984 9.765810 -17.636719 8.115234 -2.713464 -7.733965 29.069490 1.884069 27.307856 -1.353101 -2.038640 14.938479 35.909599 -19.989656 -72.676659 -67.665321 52.343937 49.074581 -0.749292 3.055588 19.072016 -26.287624 19.959658 
-5.294730 54.561142 -80.142807 28.642580 11.777344 -106.521446 29.619139 8.212891 6.220702 -34.775391 9.707030 0.527344 -8.007812 10.234375 1.984157 25.664063 -2.392578 2.236328 34.267578 0.371094 -0.068423 79.511719 -40.585938 -144.371597 -69.638680 -3.720703 -50.751953 -5.117188 1.728516 -0.175781 -10.898437 -3.046875 -0.038543 -67.480469 47.109375 -136.574875 67.216797 -0.849609 8.115379 -17.968750 7.744140 -2.705078 -12.099836 30.586096 4.176447 27.662355 -1.358898 -2.243180 7.538824 36.243183 -15.537422 -46.950130 -67.124969 29.441595 49.927681 -0.895786 3.381164 21.415699 -21.726402 19.699173 
-4.740588 53.490746 -80.506210 30.917969 12.128905 -98.085938 29.443361 7.568360 5.880193 -35.820313 10.585938 0.158044 -11.015625 11.103515 1.876881 26.005859 -2.568359 2.773000 33.925781 0.000000 0.000000 78.037109 -41.601566 -143.248672 -69.462891 -3.632813 -49.315788 -1.767578 -1.425781 0.000000 -9.843751 -3.398438 -0.048828 -70.244141 48.056641 -137.912659 66.796875 -0.849609 6.933594 -18.632813 7.412109 -2.508506 -18.592413 32.028309 4.246820 28.881304 -1.275326 -2.442848 -1.034599 33.398052 -10.685573 -23.934385 -62.224377 8.416429 52.415367 -0.534842 3.253041 23.659662 -16.769840 18.939812 
-4.178951 52.491684 -81.103180 32.675781 12.128906 -88.425674 29.414063 6.464844 5.235475 -37.070313 11.103515 -0.046948 -14.374999 11.777344 1.623087 26.191406 -2.392578 3.115234 32.685551 -0.410156 0.039132 76.445313 -43.857422 -141.842697 -68.339844 -3.505859 -47.275394 1.757813 -5.634766 -0.206032 -8.798828 -3.007812 -0.117188 -73.789063 49.833984 -138.674179 66.425781 -0.791014 6.377074 -18.964844 7.041016 -2.498801 -26.645916 32.709328 2.110050 30.827765 -1.094997 -2.322998 -8.217363 26.240000 -7.479943 -8.662655 -53.686234 -7.159630 55.936062 -0.709764 3.318763 25.672398 -12.256954 17.380386 
-3.649839 51.592209 -81.898521 33.750004 11.777345 -78.015579 30.087893 4.980469 4.678582 -37.773438 10.576172 0.107422 -18.251953 12.080079 1.056731 25.839844 -2.568359 2.939453 30.566404 -0.878906 -0.097656 75.380859 -47.763672 -140.576172 -66.357422 -3.320313 -45.263672 4.882813 -9.951173 -0.909891 -8.261718 -1.943359 -0.107091 101.552757 126.914070 40.603512 65.488281 -0.664063 5.283317 -19.189453 7.519532 -2.684268 -34.879494 30.973799 0.072820 32.949978 -0.909846 -2.418829 -13.257121 17.033442 -7.279848 -0.784211 -43.731205 -16.492723 59.836315 -1.061443 3.263788 27.267189 -8.724401 16.166796 
-3.161820 50.799541 -82.848457 34.277344 11.601563 -67.861320 31.455076 3.085938 4.218750 -37.587894 9.160155 0.810547 -22.480469 12.128906 -0.019531 25.664064 -3.271484 2.411552 28.095703 -1.816406 -0.039062 76.523438 -52.734375 -140.505814 -63.437500 -3.281250 -43.143974 7.773438 -13.134767 -1.838157 -8.613281 0.537110 -0.107514 96.210945 121.503899 39.529808 63.857418 -0.507813 3.789063 -18.427734 8.671875 -3.035635 -42.932880 26.959705 -5.129132 34.865582 -1.208487 -2.601366 -15.283885 12.187797 -8.660498 0.446126 -32.951790 -19.565044 64.057495 -1.197291 3.159508 28.528515 -6.937102 15.494508 
-2.720648 50.076885 -83.899460 34.277344 11.601563 -58.017574 33.388668 1.601562 3.652344 -35.986328 6.884765 1.553905 -27.587891 12.177735 -1.072159 25.839844 -4.150391 1.884766 26.308594 -3.398438 -0.097077 -100.078125 -121.328117 39.249466 -60.244141 -3.115234 -40.985794 9.091797 -14.930993 -2.551451 -9.121094 4.267578 -0.049555 91.494156 114.423828 37.997173 61.874996 -0.332031 2.060549 -16.494141 9.355469 -2.889036 -49.451992 21.190880 -8.670375 36.259235 -0.455176 -3.152867 -15.380411 8.734875 -9.348797 -2.910374 -23.261766 -19.850183 68.777878 -1.368045 3.256766 28.727919 -6.228601 15.254852 
-2.364204 49.366268 -84.994629 34.277344 12.128906 -49.238281 35.693359 0.712891 2.900512 -33.691402 4.960938 1.602407 -31.972658 11.611328 -1.367188 25.664064 -4.501953 1.708218 25.039061 -4.716797 -0.117188 -95.693352 -114.707031 39.454018 -56.152344 -2.851563 -36.826176 9.101562 -15.449219 -2.539063 -8.720703 7.822266 -0.069689 91.503906 106.621094 39.482010 58.886723 -0.332031 1.025447 -13.896484 8.759767 -2.254370 -54.618183 15.419478 -11.199328 37.312210 -0.806888 -2.953229 -13.962025 5.448933 -10.714123 -9.501674 -16.306856 -18.826990 73.303658 -1.777116 3.609121 27.792128 -6.051249 14.866995 
-2.144957 48.605061 -86.077477 34.453125 12.822265 -41.445313 37.832027 0.058594 1.835938 -31.582029 4.082031 1.123742 -33.330078 9.414063 -0.408559 24.248045 -4.160156 2.060547 23.798828 -5.439454 -0.097656 -93.798820 -106.542969 41.465248 -51.093750 -2.470703 -30.029057 8.847656 -14.619141 -2.385276 -7.470703 9.208984 -0.050391 108.701180 98.730469 56.298714 54.482422 -0.273438 1.123047 -10.927734 7.246093 -1.571034 -58.999043 10.331615 -10.866080 38.553108 -0.640787 -2.989311 -12.318220 1.800032 -11.640203 -17.555363 -11.060893 -15.915337 76.830421 -1.767347 3.391607 26.370993 -5.984793 14.716125 
